# xmcd
#
# Track frame offsets: 
#        182
#        17445
#        32070
#        49840
#        67787
#        84142
#        102370
#        120525
#        138835
#        155297
#        173142
#        189572
#        205092
#        225020
#
# Disc length: 3218 seconds
#
# Revision: 0
# Processed by: cddbd v1.4PL0 Copyright (c) Steve Scherf et al.
# Submitted via: ExactAudioCopy v0.95a3
#
DISCID=9b0c900e
DTITLE=Various Artist - Don´t Stop The Music - Dance Collection
DYEAR=1900
DGENRE=Oldies
TTITLE0=Radiorama - Desire
TTITLE1=Lee Marrow - Dont Stop The Music
TTITLE2=B-BOY - Catch The Fox (Caccia alla Volpe)
TTITLE3=Joe Yellow - Im Your Lover
TTITLE4=2 Twin - Face To Face Heart To Heart
TTITLE5=Anthony`s Games - Silent Smiles
TTITLE6=Larabell - Feel It
TTITLE7=Radiorama - Vampires
TTITLE8=M. and G. - When I Let You Down
TTITLE9=D.J.Gang - Tarzan Boy
TTITLE10=Alan Barry - Come On
TTITLE11=Larabell - Stop (When You Do What You Do)
TTITLE12=Rene - Don´t Hurt Me
TTITLE13=Anthony´s Games - Sunshine Love
EXTD=
EXTT0=
EXTT1=
EXTT2=
EXTT3=
EXTT4=
EXTT5=
EXTT6=
EXTT7=
EXTT8=
EXTT9=
EXTT10=
EXTT11=
EXTT12=
EXTT13=
PLAYORDER=
